<mxfile host="Electron" agent="Mozilla/5.0 (Macintosh; Intel Mac OS X 10_15_7) AppleWebKit/537.36 (KHTML, like Gecko) draw.io/25.0.2 Chrome/128.0.6613.186 Electron/32.2.5 Safari/537.36" version="25.0.2">
  <diagram name="Page-1" id="ydBRe4dNhyEyTCZVvxcr">
    <mxGraphModel dx="1346" dy="730" grid="1" gridSize="10" guides="1" tooltips="1" connect="1" arrows="1" fold="1" page="1" pageScale="1" pageWidth="1169" pageHeight="827" math="0" shadow="0">
      <root>
        <mxCell id="0" />
        <mxCell id="1" parent="0" />
        <mxCell id="xeSMLGPYK5058LVSxV1k-16" value="" style="rounded=1;whiteSpace=wrap;html=1;fillColor=none;strokeColor=none;arcSize=18;" parent="1" vertex="1">
          <mxGeometry x="433" y="332.02" width="318.46" height="310" as="geometry" />
        </mxCell>
        <mxCell id="xeSMLGPYK5058LVSxV1k-2" value="" style="shape=hexagon;perimeter=hexagonPerimeter2;whiteSpace=wrap;html=1;fixedSize=1;size=30;rotation=90;fillColor=#5A00C7;strokeColor=none;direction=west;aspect=fixed;rounded=1;arcSize=18;" parent="1" vertex="1">
          <mxGeometry x="481.765" y="347.385" width="115.47" height="100" as="geometry" />
        </mxCell>
        <mxCell id="xeSMLGPYK5058LVSxV1k-10" value="" style="shape=hexagon;perimeter=hexagonPerimeter2;whiteSpace=wrap;html=1;fixedSize=1;size=30;rotation=90;fillColor=#5A00C7;strokeColor=none;direction=west;aspect=fixed;rounded=1;arcSize=18;" parent="1" vertex="1">
          <mxGeometry x="586.5" y="347.385" width="115.47" height="100" as="geometry" />
        </mxCell>
        <mxCell id="xeSMLGPYK5058LVSxV1k-11" value="" style="shape=hexagon;perimeter=hexagonPerimeter2;whiteSpace=wrap;html=1;fixedSize=1;size=30;rotation=90;fillColor=#5A00C7;strokeColor=none;direction=west;aspect=fixed;rounded=1;arcSize=18;" parent="1" vertex="1">
          <mxGeometry x="638.495" y="437.025" width="115.47" height="100" as="geometry" />
        </mxCell>
        <mxCell id="xeSMLGPYK5058LVSxV1k-12" value="" style="shape=hexagon;perimeter=hexagonPerimeter2;whiteSpace=wrap;html=1;fixedSize=1;size=30;rotation=90;fillColor=#F0CB00;strokeColor=none;direction=west;aspect=fixed;rounded=1;arcSize=18;" parent="1" vertex="1">
          <mxGeometry x="586.5" y="526.655" width="115.47" height="100" as="geometry" />
        </mxCell>
        <mxCell id="xeSMLGPYK5058LVSxV1k-13" value="" style="shape=hexagon;perimeter=hexagonPerimeter2;whiteSpace=wrap;html=1;fixedSize=1;size=30;rotation=90;fillColor=#5A00C7;strokeColor=none;direction=west;aspect=fixed;rounded=1;arcSize=18;" parent="1" vertex="1">
          <mxGeometry x="481.765" y="526.655" width="115.47" height="100" as="geometry" />
        </mxCell>
        <mxCell id="xeSMLGPYK5058LVSxV1k-14" value="" style="shape=hexagon;perimeter=hexagonPerimeter2;whiteSpace=wrap;html=1;fixedSize=1;size=30;rotation=90;fillColor=#5A00C7;strokeColor=none;direction=west;aspect=fixed;rounded=1;arcSize=18;" parent="1" vertex="1">
          <mxGeometry x="430.505" y="437.025" width="115.47" height="100" as="geometry" />
        </mxCell>
        <mxCell id="FhkgDeEulnHgvS8vjxcA-1" value="" style="rounded=1;whiteSpace=wrap;html=1;fillColor=none;strokeColor=none;arcSize=18;" vertex="1" parent="1">
          <mxGeometry x="922.49" y="332.02" width="318.46" height="310" as="geometry" />
        </mxCell>
        <mxCell id="FhkgDeEulnHgvS8vjxcA-2" value="" style="shape=hexagon;perimeter=hexagonPerimeter2;whiteSpace=wrap;html=1;fixedSize=1;size=30;rotation=90;fillColor=#5A00C7;strokeColor=none;direction=west;aspect=fixed;rounded=1;arcSize=18;" vertex="1" parent="1">
          <mxGeometry x="971.255" y="347.385" width="115.47" height="100" as="geometry" />
        </mxCell>
        <mxCell id="FhkgDeEulnHgvS8vjxcA-3" value="" style="shape=hexagon;perimeter=hexagonPerimeter2;whiteSpace=wrap;html=1;fixedSize=1;size=30;rotation=90;fillColor=#5A00C7;strokeColor=none;direction=west;aspect=fixed;rounded=1;arcSize=18;" vertex="1" parent="1">
          <mxGeometry x="1075.99" y="347.385" width="115.47" height="100" as="geometry" />
        </mxCell>
        <mxCell id="FhkgDeEulnHgvS8vjxcA-4" value="" style="shape=hexagon;perimeter=hexagonPerimeter2;whiteSpace=wrap;html=1;fixedSize=1;size=30;rotation=90;fillColor=#5A00C7;strokeColor=none;direction=west;aspect=fixed;rounded=1;arcSize=18;" vertex="1" parent="1">
          <mxGeometry x="1127.9850000000001" y="437.025" width="115.47" height="100" as="geometry" />
        </mxCell>
        <mxCell id="FhkgDeEulnHgvS8vjxcA-5" value="" style="shape=hexagon;perimeter=hexagonPerimeter2;whiteSpace=wrap;html=1;fixedSize=1;size=30;rotation=90;fillColor=#5A00C7;strokeColor=none;direction=west;aspect=fixed;rounded=1;arcSize=18;" vertex="1" parent="1">
          <mxGeometry x="1075.99" y="526.655" width="115.47" height="100" as="geometry" />
        </mxCell>
        <mxCell id="FhkgDeEulnHgvS8vjxcA-6" value="" style="shape=hexagon;perimeter=hexagonPerimeter2;whiteSpace=wrap;html=1;fixedSize=1;size=30;rotation=90;fillColor=#5A00C7;strokeColor=none;direction=west;aspect=fixed;rounded=1;arcSize=18;" vertex="1" parent="1">
          <mxGeometry x="971.255" y="526.655" width="115.47" height="100" as="geometry" />
        </mxCell>
        <mxCell id="FhkgDeEulnHgvS8vjxcA-7" value="" style="shape=hexagon;perimeter=hexagonPerimeter2;whiteSpace=wrap;html=1;fixedSize=1;size=30;rotation=90;fillColor=#d100b5;strokeColor=none;direction=west;aspect=fixed;rounded=1;arcSize=18;" vertex="1" parent="1">
          <mxGeometry x="919.995" y="437.025" width="115.47" height="100" as="geometry" />
        </mxCell>
        <mxCell id="FhkgDeEulnHgvS8vjxcA-8" value="" style="shape=hexagon;perimeter=hexagonPerimeter2;whiteSpace=wrap;html=1;fixedSize=1;size=30;rotation=90;fillColor=#d100b5;strokeColor=none;direction=west;aspect=fixed;rounded=1;arcSize=18;" vertex="1" parent="1">
          <mxGeometry x="1023.985" y="437.025" width="115.47" height="100" as="geometry" />
        </mxCell>
        <mxCell id="FhkgDeEulnHgvS8vjxcA-9" value="" style="shape=hexagon;perimeter=hexagonPerimeter2;whiteSpace=wrap;html=1;fixedSize=1;size=30;rotation=90;fillColor=#F0CB00;strokeColor=none;direction=west;aspect=fixed;rounded=1;arcSize=18;" vertex="1" parent="1">
          <mxGeometry x="534.5" y="437.025" width="115.47" height="100" as="geometry" />
        </mxCell>
      </root>
    </mxGraphModel>
  </diagram>
</mxfile>
